<svg
 xmlns="http://www.w3.org/2000/svg"
 xmlns:xlink="http://www.w3.org/1999/xlink"
 viewBox="0 0 24 30"
 >

<path fill-rule="evenodd"  fill="rgb(50, 50, 50)"
 d="M23.994,25.932 L22.277,6.589 C22.240,6.159 21.878,5.834 21.455,5.834 L17.923,5.834 C17.874,2.607 15.237,-0.000 12.000,-0.000 C8.762,-0.000 6.126,2.607 6.077,5.834 L2.545,5.834 C2.115,5.834 1.760,6.159 1.723,6.589 L0.006,25.932 C0.006,25.957 -0.000,25.981 -0.000,26.006 C-0.000,28.208 2.017,30.000 4.501,30.000 L19.499,30.000 C21.982,30.000 24.000,28.208 24.000,26.006 C24.000,25.981 24.000,25.957 23.994,25.932 ZM12.000,1.656 C14.324,1.656 16.219,3.521 16.268,5.834 L7.732,5.834 C7.781,3.521 9.676,1.656 12.000,1.656 ZM19.499,28.343 L4.501,28.343 C2.943,28.343 1.680,27.313 1.655,26.043 L3.299,7.497 L6.070,7.497 L6.070,10.012 C6.070,10.472 6.438,10.840 6.898,10.840 C7.358,10.840 7.726,10.472 7.726,10.012 L7.726,7.497 L16.268,7.497 L16.268,10.012 C16.268,10.472 16.636,10.840 17.095,10.840 C17.555,10.840 17.923,10.472 17.923,10.012 L17.923,7.497 L20.695,7.497 L22.344,26.043 C22.320,27.313 21.050,28.343 19.499,28.343 Z"/>
</svg>
