<svg
 xmlns="http://www.w3.org/2000/svg"
 xmlns:xlink="http://www.w3.org/1999/xlink"
 viewBox="0 0 26px 26px">
<path fill-rule="evenodd"  fill="rgb(67, 70, 75)"
 d="M25.711,25.711 C25.318,26.104 24.681,26.104 24.288,25.711 L18.886,20.309 C16.888,21.987 14.313,23.000 11.500,23.000 C5.149,23.000 -0.000,17.851 -0.000,11.500 C-0.000,5.149 5.149,-0.000 11.500,-0.000 C13.202,-0.000 14.807,0.388 16.260,1.052 C16.683,1.169 17.000,1.540 17.000,2.000 C17.000,2.552 16.552,3.000 16.000,3.000 C15.839,3.000 15.692,2.953 15.557,2.885 L15.543,2.913 C14.315,2.334 12.948,2.000 11.500,2.000 C6.253,2.000 2.000,6.253 2.000,11.500 C2.000,16.747 6.253,21.000 11.500,21.000 C16.747,21.000 21.000,16.747 21.000,11.500 C21.000,9.301 20.246,7.282 18.991,5.672 L19.183,5.544 C19.077,5.385 19.000,5.205 19.000,5.000 C19.000,4.448 19.448,4.000 20.000,4.000 C20.552,4.000 21.000,4.448 21.000,5.000 C21.000,5.015 20.992,5.027 20.992,5.042 C22.250,6.884 23.000,9.100 23.000,11.500 C23.000,14.313 21.987,16.888 20.309,18.886 L25.711,24.288 C26.104,24.681 26.104,25.318 25.711,25.711 Z"/>
</svg>
