<svg
 xmlns="http://www.w3.org/2000/svg"
 xmlns:xlink="http://www.w3.org/1999/xlink"
 viewBox="0 0 29 44"
 >
<path fill-rule="evenodd"  class="sidemenu-icon"
 d="M20.778,14.956 L20.778,15.172 C20.778,15.567 20.461,15.888 20.070,15.888
 C19.679,15.888 19.362,15.567 19.362,15.172 L19.362,14.956 C19.362,14.561
 19.679,14.240 20.070,14.240 C20.461,14.240 20.778,14.561 20.778,14.956
 ZM23.008,15.886 C23.397,15.858 23.691,15.515 23.663,15.120 L23.648,14.906
 C23.621,14.511 23.283,14.214 22.893,14.242 C22.503,14.270 22.209,14.612
 22.237,15.007 L22.252,15.222 C22.278,15.599 22.589,15.887 22.957,15.887
 C22.974,15.887 22.990,15.887 23.008,15.886 ZM29.000,9.220 L29.000,12.054
 C29.000,12.450 28.683,12.771 28.292,12.771 L27.150,12.771 L24.016,32.772
 C23.955,33.163 23.592,33.430 23.207,33.368 C22.821,33.306 22.558,32.939
 22.619,32.548 L25.717,12.771 L6.708,12.771 L8.102,21.669 L18.434,33.862
 C18.976,33.569 19.590,33.438 20.219,33.486 C21.090,33.554 21.881,33.958
 22.446,34.626 L25.772,38.550 C26.337,39.217 26.612,40.070 26.545,40.952
 C26.479,41.833 26.079,42.634 25.420,43.206 C24.826,43.722 24.082,43.999
 23.304,43.999 C23.219,43.999 23.134,43.996 23.048,43.989 C22.178,43.922
 21.387,43.518 20.821,42.850 L17.496,38.926 C16.483,37.731 16.464,36.006
 17.361,34.796 L8.525,24.369 L10.510,37.041 L14.155,37.041 C14.545,37.041
 14.862,37.362 14.862,37.758 C14.862,38.154 14.545,38.474 14.155,38.474
 L10.613,38.474 L10.613,39.876 L16.516,39.876 C16.907,39.876 17.224,40.197
 17.224,40.592 C17.224,40.988 16.907,41.309 16.516,41.309 L9.906,41.309
 C9.515,41.309 9.198,40.988 9.198,40.592 L9.198,37.814 L6.767,22.294
 L1.170,15.689 C0.915,15.389 0.949,14.937 1.246,14.679 C1.543,14.422
 1.990,14.456 2.244,14.756 L6.344,19.594 L5.275,12.771 L4.132,12.771
 C3.742,12.771 3.425,12.450 3.425,12.054 L3.425,9.220 C3.425,8.824
 3.742,8.503 4.132,8.503 L5.764,8.503 C5.761,8.418 5.760,8.332 5.760,8.247
 C5.760,7.300 5.932,6.365 6.272,5.469 C6.390,5.160 6.703,4.972 7.028,5.017
 C7.746,5.115 8.481,5.165 9.213,5.165 C13.737,5.165 17.890,3.232 19.545,0.354
 C19.688,0.105 19.961,-0.028 20.234,0.003 C20.235,0.003 20.235,0.003 20.236,0.003
 C20.282,0.008 20.328,0.018 20.373,0.033 C20.373,0.033 20.374,0.033 20.374,0.033
 C20.383,0.036 20.393,0.039 20.402,0.043 C24.206,1.468 26.665,4.688 26.665,8.247
 C26.665,8.332 26.663,8.418 26.660,8.503 L28.292,8.503 C28.683,8.503 29.000,8.824 29.000,9.220 ZM18.570,37.993 L21.896,41.917 C22.558,42.699 23.726,42.790 24.499,42.119 C25.271,41.448 25.361,40.265 24.698,39.483 L21.372,35.558 C21.053,35.182 20.605,34.953 20.111,34.915 C19.619,34.877 19.142,35.033 18.771,35.355 C18.770,35.356 18.770,35.357 18.769,35.357 C18.766,35.359 18.763,35.362 18.760,35.365 C17.996,36.037 17.910,37.213 18.570,37.993 ZM7.175,8.247 C7.175,8.332 7.177,8.418 7.180,8.503
 L25.244,8.503 C25.248,8.418 25.250,8.332 25.250,8.247 C25.250,5.776 23.782,3.487 21.403,2.094 C21.495,2.695 21.473,3.314 21.331,3.925 C21.042,5.164 20.299,6.212 19.237,6.877 C18.904,7.085 18.468,6.981 18.263,6.644 C18.057,6.308 18.160,5.866 18.492,5.658 C19.233,5.195 19.752,4.462 19.953,3.597 C20.061,3.132 20.071,2.659 19.985,2.206 C17.766,4.909 13.705,6.598 9.213,6.598 C8.614,6.598 8.014,6.567 7.420,6.506 C7.257,7.075 7.175,7.658 7.175,8.247 ZM27.585,9.936 L25.901,9.936 C25.894,9.936 25.887,9.936 25.879,9.936 L6.545,9.936 C6.538,9.936 6.531,9.936 6.524,9.936 L4.840,9.936 L4.840,11.338 L26.546,11.338 L27.585,11.338 L27.585,9.936 L27.585,9.936 ZM21.445,18.915 C21.446,18.915 21.446,18.915 21.446,18.915 C21.837,18.915 22.153,18.594 22.153,18.198 L22.153,17.983 C22.153,17.588 21.836,17.267 21.445,17.267 C21.445,17.267 21.445,17.267 21.445,17.267 C21.054,17.267 20.738,17.588 20.738,17.984 L20.738,18.199 C20.738,18.594 21.055,18.915 21.445,18.915 Z" />
</svg>
