<svg
 xmlns="http://www.w3.org/2000/svg"
 xmlns:xlink="http://www.w3.org/1999/xlink"
 viewBox="0 0 28 42">
<path fill-rule="evenodd"  class="sidemenu-icon"
 d="M24.989,13.572 L24.952,13.572 C24.584,8.223 20.281,3.984 15.031,3.984 C13.774,3.984 12.575,4.237 11.467,4.680 L10.275,2.471 C10.174,2.283 9.995,2.148 9.786,2.101 L0.320,-0.001 L-0.000,1.439 L9.137,3.469 L10.139,5.326 C7.314,6.987 5.352,10.035 5.109,13.573 L5.072,13.573 C3.852,13.573 2.861,14.565 2.861,15.785 C2.861,17.005 3.853,17.998 5.072,17.998 L5.872,17.998 L7.849,40.925 C7.882,41.306 8.201,41.600 8.584,41.600 L21.477,41.600 C21.859,41.600 22.179,41.306 22.212,40.925 L24.189,17.998 L24.989,17.998 C26.209,17.998 27.200,17.005 27.200,15.785
 C27.200,14.565 26.209,13.572 24.989,13.572 ZM15.031,5.459 C19.470,5.459 23.123,9.036 23.483,13.572 L6.578,13.572 C6.938,9.036 10.591,5.459 15.031,5.459 ZM20.801,40.124 L9.261,40.124 L8.052,26.111 L22.009,26.111 L20.801,40.124 ZM22.136,24.636 L7.925,24.636 L7.353,17.997 L22.709,17.997 L22.136,24.636 ZM24.989,16.522 L23.513,16.522 L6.549,16.522 L5.072,16.522 C4.659,16.522 4.336,16.198 4.336,15.785 C4.336,15.378 4.666,15.047 5.072,15.047 L5.811,15.047 L24.250,15.047 L24.989,15.047 C25.402,15.047 25.725,15.371 25.725,15.785 C25.725,16.192 25.395,16.522 24.989,16.522 Z"/>
</svg>
