<svg
 xmlns="http://www.w3.org/2000/svg"
 xmlns:xlink="http://www.w3.org/1999/xlink"
 viewBox="0 0 40 40">
<path
  fill-rule="evenodd"
  class="sidemenu-icon"
 d="M39.806,38.479 C39.418,39.417 38.546,39.999 37.532,39.999 L2.462,39.999
 C1.104,39.999 -0.000,38.895 -0.000,37.538 L-0.000,2.468 C-0.000,1.453 0.582,0.581
 1.520,0.193 C2.457,-0.195 3.485,0.009 4.203,0.727 L8.344,4.869 L15.303,5.995
 C15.574,6.039 15.803,6.219 15.910,6.473 L20.235,16.759 L20.398,16.922 L34.598,22.892
 C34.851,22.999 35.032,23.228 35.075,23.499 L36.640,33.164 L39.272,35.797
 C39.990,36.514 40.194,37.542 39.806,38.479 ZM14.612,7.497 L10.271,6.795
 L17.252,13.776 L14.612,7.497 ZM33.573,24.190 L23.380,19.905 L34.714,31.238
 L33.573,24.190 ZM38.146,36.923 L3.076,1.854 C2.534,1.312 1.593,1.709 1.593,2.468
 L1.593,37.538 C1.593,38.016 1.983,38.406 2.462,38.406 L37.532,38.406 C38.293,38.406
 38.687,37.465 38.146,36.923 ZM4.827,35.879 C4.387,35.879 4.030,35.523 4.030,35.082
 L4.030,17.039 C4.030,16.599 4.387,16.242 4.827,16.242 C5.267,16.242 5.623,16.599
 5.623,17.039 L5.623,35.082 C5.623,35.523 5.267,35.879 4.827,35.879 ZM4.827,13.439
 C4.387,13.439 4.030,13.083 4.030,12.642 L4.030,9.437 C4.030,8.997 4.387,8.640
 4.827,8.640 C5.267,8.640 5.623,8.997 5.623,9.437 L5.623,12.642 C5.623,13.083 5.267,13.439 4.827,13.439 Z"/>
</svg>
