<svg
 xmlns="http://www.w3.org/2000/svg"
 xmlns:xlink="http://www.w3.org/1999/xlink"
 viewBox="0 0 55 52">
<path fill-rule="evenodd" class="sidemenu-icon"
 d="M46.717,41.048 L51.422,31.824 C53.152,35.526 50.175,40.957 46.717,41.048 ZM37.500,40.499 L46.046,24.499 C50.034,32.699 45.476,40.299 37.500,40.499 ZM40.537,27.580 C40.015,28.682 38.695,29.156 37.592,28.635 L36.869,28.293 L25.284,48.177 C25.092,48.508 24.678,48.637 24.332,48.473 L12.676,42.964 C12.330,42.801 12.166,42.399 12.299,42.041 L20.308,20.467 L19.585,20.125 C18.482,19.604 18.010,18.283 18.531,17.180 C19.052,16.076 20.373,15.603 21.476,16.124 L21.509,16.140 C23.241,13.045 26.317,11.128 29.581,10.833 L29.468,8.725 L22.074,2.987 L22.979,1.821
 L30.639,7.767 C30.808,7.898 30.912,8.096 30.923,8.311 L31.057,10.816 C32.248,10.889 33.440,11.173 34.576,11.710 C39.324,13.954 41.403,19.625 39.449,24.618 L39.483,24.634 C40.586,25.155 41.058,26.476 40.537,27.580 ZM13.918,41.919 L24.351,46.850 L31.432,34.697 L18.813,28.733 L13.918,41.919 ZM19.328,27.345 L32.177,33.417 L35.531,27.661 L21.647,21.099 L19.328,27.345 ZM33.946,13.044 C29.933,11.147 25.101,12.820 22.837,16.767 L38.122,23.990 C39.734,19.736 37.960,14.940 33.946,13.044 ZM38.853,25.967 L38.185,25.652 L21.514,17.773 L20.846,17.457 C20.478,17.284 20.039,17.442 19.865,17.810 C19.688,18.183 19.842,18.615 20.215,18.791 L21.550,19.422 L36.888,26.670 L38.223,27.301 C38.590,27.475 39.029,27.317 39.203,26.949 C39.380,26.575 39.226,26.144 38.853,25.967 ZM16.552,12.062 L8.195,28.062 C4.295,19.862 8.752,12.262 16.552,12.062 ZM7.561,11.513 L2.959,20.737 C1.268,17.035 4.179,11.604 7.561,11.513 Z"/>
</svg>
