<svg
 xmlns="http://www.w3.org/2000/svg"
 xmlns:xlink="http://www.w3.org/1999/xlink"
 width="1843px" height="3998px">
<path fill-rule="evenodd"  opacity="0.69" fill="rgb(237, 237, 237)"
 d="M381.000,-0.000 L382.000,-0.000 L382.000,3998.000 L381.000,3998.000 L381.000,-0.000 Z"/>
<path fill-rule="evenodd"  opacity="0.69" fill="rgb(237, 237, 237)"
 d="M741.000,-0.000 L742.000,-0.000 L742.000,3998.000 L741.000,3998.000 L741.000,-0.000 Z"/>
<path fill-rule="evenodd"  opacity="0.69" fill="rgb(237, 237, 237)"
 d="M1101.000,-0.000 L1102.000,-0.000 L1102.000,3998.000 L1101.000,3998.000 L1101.000,-0.000 Z"/>
<path fill-rule="evenodd"  opacity="0.69" fill="rgb(237, 237, 237)"
 d="M1461.000,-0.000 L1462.000,-0.000 L1462.000,3998.000 L1461.000,3998.000 L1461.000,-0.000 Z"/>
<path fill-rule="evenodd"  fill="rgb(243, 243, 243)"
 d="M0.000,1054.000 L0.000,1053.000 L1461.000,1053.000 L1461.000,1054.000 L0.000,1054.000 Z"/>
<path fill-rule="evenodd"  fill="rgb(243, 243, 243)"
 d="M382.000,1886.999 L382.000,1886.000 L1843.000,1886.000 L1843.000,1886.999 L382.000,1886.999 Z"/>
</svg>
