<svg
 xmlns="http://www.w3.org/2000/svg"
 xmlns:xlink="http://www.w3.org/1999/xlink"
  viewBox="0 0 1106 581">
<path fill-rule="evenodd"  fill="rgb(156, 243, 145)"
 d="M10.000,275.000 L79.000,275.000 C84.523,275.000 89.000,279.477 89.000,285.000 L89.000,285.000 C89.000,290.523 84.523,295.000 79.000,295.000 L10.000,295.000 C4.477,295.000 -0.000,290.523 -0.000,285.000 L-0.000,285.000 C-0.000,279.477 4.477,275.000 10.000,275.000 Z"/>
<path fill-rule="evenodd"  fill="rgb(255, 209, 98)"
 d="M539.000,561.000 L628.000,561.000 C633.523,561.000 638.000,565.477 638.000,571.000 C638.000,576.523 633.523,581.000 628.000,581.000 L539.000,581.000 C533.477,581.000 529.000,576.523 529.000,571.000 C529.000,565.477 533.477,561.000 539.000,561.000 Z"/>
<path fill-rule="evenodd"  fill="rgb(255, 251, 150)"
 d="M137.000,-0.000 L206.000,-0.000 C211.523,-0.000 216.000,4.477 216.000,10.000 C216.000,15.523 211.523,20.000 206.000,20.000 L137.000,20.000 C131.477,20.000 127.000,15.523 127.000,10.000 C127.000,4.477 131.477,-0.000 137.000,-0.000 Z"/>
<path fill-rule="evenodd"  fill="rgb(100, 140, 255)"
 d="M686.000,48.000 L725.000,48.000 C730.523,48.000 735.000,52.477 735.000,58.000 C735.000,63.523 730.523,68.000 725.000,68.000 L686.000,68.000 C680.477,68.000 676.000,63.523 676.000,58.000 C676.000,52.477 680.477,48.000 686.000,48.000 Z"/>
<path fill-rule="evenodd"  fill="rgb(100, 140, 255)"
 d="M649.000,48.000 C654.523,48.000 659.000,52.477 659.000,58.000 C659.000,63.523 654.523,68.000 649.000,68.000 C643.477,68.000 639.000,63.523 639.000,58.000 C639.000,52.477 643.477,48.000 649.000,48.000 Z"/>
<path fill-rule="evenodd"  fill="rgb(249, 123, 138)"
 d="M1096.000,170.000 C1101.523,170.000 1106.000,174.477 1106.000,180.000 C1106.000,185.523 1101.523,190.000 1096.000,190.000 C1090.477,190.000 1086.000,185.523 1086.000,180.000 C1086.000,174.477 1090.477,170.000 1096.000,170.000 Z"/>
<path fill-rule="evenodd"  fill="rgb(249, 123, 138)"
 d="M1062.000,190.000 L1033.000,190.000 C1027.477,190.000 1023.000,185.523 1023.000,180.000 C1023.000,174.477 1027.477,170.000 1033.000,170.000 L1062.000,170.000 C1067.523,170.000 1072.000,174.477 1072.000,180.000 C1072.000,185.523 1067.523,190.000 1062.000,190.000 ZM898.000,433.000 L879.000,433.000 C873.477,433.000 869.000,428.523 869.000,423.000 C869.000,417.477 873.477,413.000 879.000,413.000 L898.000,413.000 C903.523,413.000 908.000,417.477 908.000,423.000 C908.000,428.523 903.523,433.000 898.000,433.000 ZM377.000,103.000 L368.000,103.000 C362.477,103.000 358.000,98.523 358.000,93.000 C358.000,87.477 362.477,83.000 368.000,83.000 L377.000,83.000 C382.523,83.000 387.000,87.477 387.000,93.000 C387.000,98.523 382.523,103.000 377.000,103.000 Z"/>
</svg>
