<svg
 xmlns="http://www.w3.org/2000/svg"
 xmlns:xlink="http://www.w3.org/1999/xlink"
 viewBox="0 0 68 68"
>
<path fill-rule="evenodd"  fill="rgb(255, 255, 255)"
 d="M34.000,68.000 C15.222,68.000 -0.000,52.777 -0.000,34.000 C-0.000,15.222 15.222,-0.000 34.000,-0.000 C52.778,-0.000 68.000,15.222 68.000,34.000 C68.000,52.777 52.778,68.000 34.000,68.000 ZM34.000,4.034 C17.450,4.034 4.034,17.450 4.034,34.000 C4.034,50.550 17.450,63.966 34.000,63.966 C50.550,63.966 63.966,50.550 63.966,34.000 C63.966,17.450 50.550,4.034 34.000,4.034 ZM45.392,48.311 C44.544,49.220 43.534,49.943 42.363,50.482 C41.192,51.021 39.928,51.290 38.572,51.290 L30.828,51.288 L30.828,47.256 L38.567,47.256 C39.321,47.256
 40.032,47.096 40.702,46.774 C41.371,46.452 41.956,46.019 42.456,45.475 C42.956,44.931 43.352,44.299 43.644,43.578 C43.937,42.858 44.083,42.100 44.083,41.302 C44.083,40.536 43.941,39.801 43.656,39.096 C43.371,38.391 42.979,37.766 42.479,37.222 C41.979,36.678 41.390,36.245 40.713,35.923 C40.036,35.601 39.313,35.440 38.544,35.440 L35.729,35.440 L35.729,31.695 L37.055,31.695 C37.815,31.695 38.521,31.548 39.172,31.254 C39.824,30.961 40.386,30.559 40.859,30.049 C41.332,29.540 41.700,28.945 41.964,28.265 C42.228,27.586 42.360,26.860
 42.360,26.087 C42.360,25.315 42.228,24.620 41.964,24.002 C41.700,23.384 41.336,22.855 40.871,22.414 C40.406,21.974 39.851,21.635 39.207,21.395 C38.564,21.156 37.854,21.036 37.079,21.036 L26.796,21.036 L26.796,43.220 L22.761,43.220 L22.761,18.105 C22.761,18.093 22.762,18.084 22.763,18.072 L22.763,17.000 L23.779,17.000 C23.794,16.999 23.808,16.997 23.824,16.997 L37.023,16.997 C38.333,16.997 39.551,17.220 40.676,17.666 C41.801,18.113 42.779,18.737 43.612,19.537 C44.444,20.338 45.099,21.284 45.577,22.377 C46.054,23.471 46.293,24.664 46.293,25.957 C46.293,27.342 46.012,28.640 45.449,29.848 C44.887,31.057 44.120,32.085 43.149,32.931 C43.889,33.331 44.567,33.828 45.184,34.421 C45.800,35.013 46.324,35.679 46.755,36.418 C47.187,37.157 47.522,37.946 47.761,38.785 C48.000,39.624 48.119,40.491 48.119,41.383 C48.119,42.708 47.877,43.966 47.391,45.159 C46.906,46.352 46.239,47.403 45.392,48.311 Z"/>
</svg>
